ply
format ascii 1.0
comment Export generated by phl
element vertex 10
property float x
property float y
property float z
property float nx
property float ny
property float nz
end_header
0.0172 0.0936 0.734 -0.0023991 -0.459059 -0.888402
0.374483 0.10264 0.585142 -0.497337 -0.470358 -0.728985
0.734 0.0932654 -0.0196727 -0.888563 -0.458719 0.00576386
-0.0187913 0.0913446 -0.734291 0.00595571 -0.456374 0.889768
-0.734239 0.0907271 0.0173135 0.890258 -0.455456 -0.00018853
0.202738 0.567463 -0.447232 -0.297225 -0.281251 0.912444
0.272822 0.717398 0.0725671 -0.270826 -0.811666 -0.517544
-0.516476 0.0945142 0.515072 0.635319 -0.459706 -0.620515
-0.273728 -0.420192 0.351511 0.414052 0.40052 -0.817401
0.293227 -0.221077 -0.512438 -0.584916 0.00678912 0.811065
